/* XPM */
static char *_d3ebe1538fa4e96e8baf78deb0fe47aQy9UAIcaR0OHDt6k[] = {
/* columns rows colors chars-per-pixel */
"40 40 142 2 ",
"   c #646464",
".  c #656565",
"X  c gray40",
"o  c DimGray",
"O  c #6A6A6A",
"+  c gray42",
"@  c #6C6C6C",
"#  c #6D6D6D",
"$  c gray43",
"%  c #6F6F6F",
"&  c gray44",
"*  c #717171",
"=  c #727272",
"-  c gray45",
";  c #747474",
":  c gray46",
">  c #767676",
",  c #777777",
"<  c gray47",
"1  c #797979",
"2  c gray48",
"3  c #7B7B7B",
"4  c #7C7C7C",
"5  c gray49",
"6  c #7E7E7E",
"7  c #808080",
"8  c #818181",
"9  c gray51",
"0  c #838383",
"q  c #848484",
"w  c gray52",
"e  c #868686",
"r  c gray53",
"t  c #898989",
"y  c gray55",
"u  c #8D8D8D",
"i  c #8E8E8E",
"p  c gray56",
"a  c #909090",
"s  c gray57",
"d  c #929292",
"f  c #939393",
"g  c gray58",
"h  c #959595",
"j  c gray59",
"k  c #979797",
"l  c #989898",
"z  c gray60",
"x  c #9A9A9A",
"c  c #9B9B9B",
"v  c gray61",
"b  c #9D9D9D",
"n  c gray62",
"m  c #9F9F9F",
"M  c #A0A0A0",
"N  c gray63",
"B  c #A2A2A2",
"V  c gray64",
"C  c #A4A4A4",
"Z  c #A5A5A5",
"A  c gray65",
"S  c #A7A7A7",
"D  c gray66",
"F  c #A9A9A9",
"G  c #AAAAAA",
"H  c gray67",
"J  c #ACACAC",
"K  c gray68",
"L  c #AEAEAE",
"P  c #AFAFAF",
"I  c gray69",
"U  c #B1B1B1",
"Y  c #B2B2B2",
"T  c gray70",
"R  c #B4B4B4",
"E  c gray71",
"W  c #B6B6B6",
"Q  c #B7B7B7",
"!  c gray72",
"~  c #B9B9B9",
"^  c gray73",
"/  c #BBBBBB",
"(  c #BCBCBC",
")  c gray74",
"_  c gray",
"`  c gray75",
"'  c #C0C0C0",
"]  c #C1C1C1",
"[  c gray76",
"{  c #C3C3C3",
"}  c gray77",
"|  c #C5C5C5",
" . c #C6C6C6",
".. c gray78",
"X. c #C8C8C8",
"o. c gray79",
"O. c #CACACA",
"+. c #CBCBCB",
"@. c gray80",
"#. c #CDCDCD",
"$. c #CECECE",
"%. c gray81",
"&. c #D0D0D0",
"*. c gray82",
"=. c #D2D2D2",
"-. c LightGray",
";. c gray83",
":. c #D5D5D5",
">. c gray84",
",. c #D7D7D7",
"<. c #D8D8D8",
"1. c gray85",
"2. c #DADADA",
"3. c gray86",
"4. c gainsboro",
"5. c #DDDDDD",
"6. c gray87",
"7. c #DFDFDF",
"8. c gray88",
"9. c #E1E1E1",
"0. c #E2E2E2",
"q. c gray89",
"w. c gray90",
"e. c #E6E6E6",
"r. c gray91",
"t. c #EAEAEA",
"y. c #ECECEC",
"u. c gray93",
"i. c #EEEEEE",
"p. c gray94",
"a. c #F1F1F1",
"s. c gray95",
"d. c #F3F3F3",
"f. c #F4F4F4",
"g. c gray96",
"h. c gray97",
"j. c #F8F8F8",
"k. c gray98",
"l. c #FBFBFB",
"z. c gray99",
"x. c #FDFDFD",
"c. c white",
/* pixels */
"4 8 8 8 e 4 e 8 8 e 8 8 e 8 e 8 8 8 8 4 t 8 4 e e 4 4 t 8 8 e 8 e 8 4 t 8 8 e 8 ",
"& X & + @ & & @ @ & @ @ @ @ @ & + @ & @ + + & + @ : @ X @ : @ + @ @ & @ @ & X 3 ",
"& & W ] ] | Z u #.8.-.] | ] ] | ] ] | | | ] O.M u -.e.5.8.-._ | | | | _ | ~ : 8 ",
"& & O.5.>.1.Y u 8.c.i.-.1.5.1.1.1.1.>.1.1.>.>.Z g e.c.c.c.i.>.1.1.>.1.1.5.-.& & ",
": & Y _ Y ~ F u >.c.1.Y ~ _ _ W _ | | | ] ~ _ M x 8.j.>.| | ~ ~ ~ _ ~ _ ~ W : 4 ",
"@ @ Z Y F L Z d 1.c.>.Z F F F F L _ ] _ _ F L M d 8.c.#.Z Z Y F F F F L Z M & 3 ",
": & F Y L L M d #.i.O.F Y L W ~ ~ _ ] W ~ Y F x x 1.t.] Z L W Y Y L L W _ Y : 3 ",
": & F Y Y ~ M x W 5._ F Y Z Y ] | _ _ L F L L M x ] -.~ Y Y L F Y F Y Y ] ~ & 3 ",
"& : F Y L L M x ] -.] L W W ~ _ _ W Y Y L L F n x ] 1.~ F W Y F L Y W ~ ] W : 4 ",
"@ & F Y L Y Z g ] >.] F Y _ | ] ~ L L L L Y L M x | 5._ F L L W L ~ ] _ | ~ @ 3 ",
"& & F Y L Y M x ~ >.] L W | _ W ~ L L L L W Y x x ] -.~ L Y L L L W | _ _ Y @ 3 ",
"& & Z W Y Y M g | 1.#.] ] | ~ L L L Y L L _ ] Z g O.5._ L L Y W | | | _ Y Z : 3 ",
": & M Y L L M x W O.] ~ W ~ Y L Z F L F F ~ ~ Z x _ O.~ Z F Y Y ~ W W ~ L n 3 & ",
"3 & x n g x g g d n g g x n x d x g g x g x x g g x d g x g x g x x g n g d & & ",
": @ M M n M M Z M M n Z M g n Y F F Z M M M M Z M Z n Z M n Z M g Z L M Z M + 3 ",
"+ 3 ] >.-.>.>.>.1.#.>.1._ g ~ j.p.c.p.1.-.>.>.#.-.>.-.-.-.>.1._ u ] f.p.c.t.: : ",
"@ : _ #.#.O.O.| O.-.O.O.] g W c.c.8.e.#.O.-.O.#.#.-.#.#.O.#.O.~ u | c.p.e.>.: 3 ",
": @ F L L L Y Y W _ Y L Z u ~ c.e.Y L Y Y L L ] _ _ _ ~ L L L Z g ~ j.8.L Z & 4 ",
"@ & F W Y Y Y L ~ ] ~ L F g _ f.e.W Y Y W W W _ ] ] _ ~ Y L Y L x W j.e.Z Z 3 3 ",
"& & F Y L Y _ | _ ] ~ Y F g F >.#.L W Y Y _ ] ~ ] ~ Y Y Y L Y F d L 5.#.L F & : ",
"& & F Y L Y ~ ] _ _ W Y L g L 1.-.L Y W ~ _ | ] _ W L W W Y W F g W >.| Y L & 4 ",
"& & F W ~ _ _ _ ~ Y L F F g L 1.-.Y W ~ ] ] _ W W W Y W Y L L Z d L 1.#.L Z : : ",
": & Z Y ~ ] ] _ W Y Y Y F g L >.| Y ~ _ | ] ] Y L Y Y W Y L Y Z x Y >.#.F Z 3 3 ",
"& & Y _ _ _ W Y W L Y L F g L >.-._ _ _ _ W W W Y W W ~ _ ] _ Y d Y >.#.Y Z & 3 ",
"& & ~ _ ] | L W Y Y Y W M x L >.#.| | ] ] W L W Y W Y ~ ] | | Y g L 5.#.Y F : 3 ",
"@ & n F Z M Z n M M M Z M x n L L M Z M F M M M n n n F F M M Z x n F Z x x & 3 ",
": & u g g d M g u x d d x g g d d d x d g d x d g n u t g d d g g x g g x g & 4 ",
"& : W _ _ _ F d O.5.#._ ] | | ] ] ] | ] ] ] ] F x #.8.1.5.-.] | _ ] ] ] ] Y : 3 ",
"@ & O.1.1.>.L u 1.c.i.-.>.1.1.>.1.>.>.>.1.1.-.F d 8.c.c.c.t.-.1.1.1.1.1.5.#.: : ",
"& & Y _ _ ~ F d >.c.5._ _ ] ] _ _ | O.O.O.] _ n g 8.c.1.#.O._ _ _ ~ ] ~ _ _ & 4 ",
": & Z Y L F F u 1.c.>.F F F F F F _ ] _ W F Y M d e.c.| M L F F L L Y F F Z @ 4 ",
": @ L W L L Z d O.f.#.Z Y L W W ~ ] ~ ~ _ L L M g >.p.| F Y Y Y Y L F W ~ L : : ",
"@ & Z W Y Y Z x ~ 1.] Z L L L ] _ | _ L F L F M x ] 1._ F Y Y F L Y F W | ~ & 3 ",
": : F Y L L M g ~ 1.| F W W W ] _ ~ W L L Y L M g ] >._ F F L Y L W Y Y ] W : 4 ",
"@ + F W Y Y M g _ >._ Z W _ _ ] _ L L L L L L n x | >._ L Y L Y L Y ] ] O.~ & 3 ",
": & F Y F Y M x ] 1.| L W ] ] _ W L F L F W Y n g | >.W F Y F L Y W ] _ _ W : 4 ",
"& & F W Y W Z g ] >.O._ ] ] ~ L Y L Y Y L ] ] Z g #.5._ L L Y ~ | ] O.~ Y Z @ : ",
"@ : n L L F M d W | ] ~ ~ ~ Y F Z F F Z Z W W n g _ O.Y Z F F Y W W _ Y L M 3 3 ",
"& & 3 : : : 3 : : 4 3 : 3 : 3 : 3 : 3 3 : 3 4 : & 4 4 : 3 3 & : 3 3 3 : : 3 & 3 ",
"& & & & : & : & : & @ : : & : & : & @ : : @ & : : & : & & : & : @ & : & : & : 3 "
};
