/* XPM */
static char *_27706156302403dd557beb41ba8293eK1S0FVFdzfjjEaHv[] = {
/* columns rows colors chars-per-pixel */
"40 40 226 2 ",
"   c #033500",
".  c #013B02",
"X  c #0C3D01",
"o  c #043907",
"O  c #143C02",
"+  c #1A3E01",
"@  c #1B3C0B",
"#  c #223E0B",
"$  c #014A02",
"%  c #084803",
"&  c #1B4104",
"*  c #184407",
"=  c #175301",
"-  c #1C5B12",
";  c #0F5107",
":  c #224B0A",
">  c #285904",
",  c #365B07",
"<  c #3B5919",
"1  c #284E19",
"2  c #016F00",
"3  c #087403",
"4  c #0E770A",
"5  c #326E07",
"6  c #385534",
"7  c #3B6323",
"8  c #4B7304",
"9  c #4A750A",
"0  c #547915",
"q  c #405834",
"w  c #436A29",
"e  c #5C7E24",
"r  c #49643D",
"t  c #546E3A",
"y  c #5F793B",
"u  c #4B732F",
"i  c #607A39",
"p  c #445D40",
"a  c #4D6744",
"s  c #516945",
"d  c #5D7542",
"f  c #5A724E",
"g  c #597451",
"h  c #627C49",
"j  c #6C7D5B",
"k  c #67795B",
"l  c #5E6B61",
"z  c #6C6C6C",
"x  c #686B69",
"c  c #726E68",
"v  c #6D726C",
"b  c #6C7966",
"n  c #72726D",
"m  c #737A6C",
"M  c #78726E",
"N  c #6D6D72",
"B  c #646B71",
"V  c #726E73",
"C  c #706D7A",
"Z  c #6E7474",
"A  c #6B7778",
"S  c #747374",
"D  c #7B7575",
"F  c #747A74",
"G  c #7C7A75",
"H  c #757479",
"J  c #7A757A",
"K  c #757A79",
"L  c #7A7B7B",
"P  c #84756D",
"I  c #827E7E",
"U  c #028601",
"Y  c #0A8600",
"T  c #018C01",
"R  c #0A8B01",
"E  c #05890A",
"W  c #1A8A03",
"Q  c #029103",
"!  c #0B9202",
"~  c #04950B",
"^  c #159402",
"/  c #1E9501",
"(  c #199609",
")  c #3A8C05",
"_  c #239501",
"`  c #279C07",
"'  c #2E9504",
"]  c #36A407",
"[  c #29A40F",
"{  c #488906",
"}  c #528904",
"|  c #528C0B",
" . c #568A04",
".. c #479807",
"X. c #5A8219",
"o. c #579F15",
"O. c #618D03",
"+. c #6A9307",
"@. c #739A09",
"#. c #719906",
"$. c #6D9F14",
"%. c #44A506",
"&. c #4CAD0C",
"*. c #45A90A",
"=. c #55AC05",
"-. c #5AAD04",
";. c #55AD0A",
":. c #55A807",
">. c #4FB300",
",. c #56B303",
"<. c #5CB205",
"1. c #57B109",
"2. c #5BB20A",
"3. c #5BBA06",
"4. c #59A814",
"5. c #4FB011",
"6. c #45B312",
"7. c #56B211",
"8. c #4EAF10",
"9. c #66A908",
"0. c #77A30B",
"q. c #65B605",
"w. c #6BB603",
"e. c #66B40A",
"r. c #6BB80B",
"t. c #72BB0C",
"y. c #7BBF0B",
"u. c #7AA416",
"i. c #65B313",
"p. c #78B612",
"a. c #65AA11",
"s. c #5D8123",
"d. c #5C822F",
"f. c #658631",
"g. c #7AC513",
"h. c #77C108",
"j. c #698349",
"k. c #6B8458",
"l. c #70815F",
"z. c #79876A",
"x. c #7C847C",
"c. c #778876",
"v. c #7A9079",
"b. c #8EBA0A",
"n. c #85BB08",
"m. c #93BD09",
"M. c #89B314",
"N. c #93BA14",
"B. c #8FC709",
"V. c #93C30D",
"C. c #96CD0D",
"Z. c #9BCC0D",
"A. c #99C906",
"S. c #98D40F",
"D. c #88C814",
"F. c #96C410",
"G. c #9CCC13",
"H. c #98CA1A",
"J. c #9CD313",
"K. c #91D319",
"L. c #A4CD0D",
"P. c #A8CB07",
"I. c #A3D10D",
"U. c #ABD20D",
"Y. c #AED405",
"T. c #B2D30C",
"R. c #A3CF11",
"E. c #ABCA14",
"W. c #A5D412",
"Q. c #AAD311",
"!. c #A6D41A",
"~. c #B3D515",
"^. c #B0CE14",
"/. c #84817F",
"(. c #8D9D78",
"). c #7C7D81",
"_. c #797481",
"`. c #827C80",
"'. c #7D8283",
"]. c #848383",
"[. c #848B85",
"{. c #868388",
"}. c #8A948A",
"|. c #929393",
" X c #949D93",
".X c #9B9D9C",
"XX c #93999A",
"oX c #8F9694",
"OX c #96A18D",
"+X c #9AA596",
"@X c #9BA59B",
"#X c #9DAA9C",
"$X c #96A496",
"%X c #AAA79A",
"&X c #BCA698",
"*X c #9FA3A4",
"=X c #9DABA2",
"-X c #A4A5A5",
";X c #AAACA5",
":X c #A6A5A9",
">X c #ACACAC",
",X c #A6A9A9",
"<X c #AAB4AA",
"1X c #B2B5AB",
"2X c #ADACB2",
"3X c #A7AAB5",
"4X c #B4AFB6",
"5X c #ADB6BA",
"6X c #ADB7B7",
"7X c #B3B3B4",
"8X c #BBBBBB",
"9X c #B6B9B6",
"0X c #B0A2A1",
"qX c #C5BEB7",
"wX c #BDC5BA",
"eX c #C2C1BF",
"rX c #C4C4BB",
"tX c #B8BBC1",
"yX c #BDC4C4",
"uX c #C4C4C3",
"iX c #C7C8C9",
"pX c #D5D4D5",
"aX c #D7D6DB",
"sX c #CACECA",
"dX c #DFE1DC",
"fX c #E6E5E5",
/* pixels */
"'.L L ].]./././.`.].].).].].L {.].{.]./.].I I {.]././././.`.].{.].].{.{.`.G ].{.",
"v x S S z H N N V z z Z z z S z z N z x z N S B z v z x x Z Z B n z N x n n x H ",
"S n 7XuXyXyX-X|.sXfXpXuXuXuXrXqXeXuXuXiXuXiXeX.X|.sXfXdXfXpXtXiXuXtXuXwXuXwXH ).",
"z S uXsX<X$Xc.k +XsX<X$X=X@X#X#X%X+X$X+X$X+X+Xx.b <XwX9XwX<XOX#X-X@X#X+X=XwXK G ",
"S S 7X@Xp @ O + & : O O O O * O O * @ * * O + + O + & O * & & & # + + # 6 c.S P ",
"N z ,X$Xr = 9 { { } } O.+.O.O. .| | { | | | } } | | | | { } } } ..{ { 5 1 F K J ",
"H N ,X Xa 5 o.7.=.e.D.J.~.T.U.~.D.9.q.=.:.;.;.7.;.;.&.:.2.2.-.-.1.1.:.) 7 A K K ",
"v N 2X$X6 5 ..>.[ W =.K.W.Q.Q.L.1.] 6.] U U T T T T R R U ^ ` ` ' ] ..) 7 c.S F ",
"Z S -XoXs 9 m.Q.2._ ;.Z.U.Q.U.R.q.2.G.2.! T T T T T T T T _ &.,.1.t.V.@.w v.M F ",
"n V >X$Xa 8 m.Q.2._ &.Z.U.Q.Q.L.q.<.G.e.! T E T T T T Q T / &.,.1.t.V.#.7 [.D L ",
"n V ;X Xr 8 V.L.2._ ;.Z.U.Q.Q.L.q.2.G.e.! T E T T T T T T / *.;.=.t.G.@.7 '.S L ",
"v V -X Xs 9 b.L.<._ 8.Z.P.Q.Q.R.q.<.G.q.! T T T T T T T T / &.-.=.r.F.@.7 F S F ",
"n H ;X}.s 8 n.U.2._ &.Z.Y.Q.Q.L.q.2.G.e.! T T T T T T T R / &.,.2.r.V.@.w v G F ",
"S H |.c.r 8 b.U.2._ 8.Z.U.Q.Q.L.3.2.G.e.! T T T T T T Q Q / &.=.1.t.V.#.7 l n S ",
"F N .X}.r 9 N.I.2._ ;.Z.Y.Q.Q.R.q.2.G.e.! T T T T T Q T T / &.=.=.t.F.#.7 F z S ",
"z J uX9Xh 9 N.P.<._ 1.G.U.Q.W.R.q.-.G.e.! T E T T T T Q R / &.=.2.r.V.@.u #XG L ",
"c S 8X<Xg 8 B.U.4._ :.Q.Q.W.~.P.3.9.L.e.~ T T T T T ~ ~ U / &.;.<.h.A.@.t XXG n ",
"J C -X}.a 8 M.H.-.' %.V.V.B.G.G.,.4.b.:.R U E U Y U U U Y _ %.:...a.y.O.< c.x I ",
"B S <XOXa * > > = $ ; , , > > > = - , = $ $ $ $ % $ $ $ % ; = = - = > < 6 v.v '.",
"v v %X;X Xc.t 1 O % .     O X X X o   O X   o o . . .   .     O $ * 6 v.}. Xx K ",
"H S >X4X7X+Xl.u +.0.) 4 ) #.0.u.9.{ ) $.) 3 4 4 2 2 2 3 4 ) ..o.#.X.d =X,X,XS ).",
"n z 2X4XtX1Xz.d.M.N.-._ &.G.I.E.L.q.,.V.q.R T U E E E R ' %.:.e.C.u.j.=X2X0XH L ",
"b c >X4X8X>Xc.f.N.I.q.( 7.R.Y.^.H.q.;.R.r.( Y R T U T R ` 7.q.t.R.u.h 3X7X>XH F ",
"H N 5XtXwX<Xz.s.b.P.<.^ ;.P.Y.Q.W.w.,.A.e.~ U T T T T T ^ *.-.w.A.u.j.#X;X0XH x.",
"V n 8XeXtX7Xj f.b.G.<./ ;.R.U.U.I.e.1.C.e.! U Q T T T T ` 8.2.g.Z.0.j.,X6X:XM L ",
"V z .X3X:X|.j e b.R.,._ =.R.U.Q.I.e.;.C.e.! T Q T T Q T / %.-.w.Z.u.d [..X.XS `.",
"S v |.|.|.].k e b.G.1._ ;.R.U.I.I.e.=.Z.r.R R T U T T T ` 7.-.g.Z.0.t F  X.Xc K ",
"H v 7XqX8X1Xj e b.G.1./ =.R.U.U.I.e.;.C.e.^ T T T T T R / %.-.w.J.u.d XXuX7XD H ",
"S z sXaXpXsXj s.b.R.=._ =.G.U.U.J.r.=.C.e.! U T U T T T ` 8.-.g.Z.u.j.6XaXiXD L ",
"S n 7XtX8X>Xl.s.b.G.;._ =.W.U.Q.I.e.1.C.r.! U T Q T Q U / %.-.r.C.0.d @XrX7XS L ",
"V n -X7X>X.Xj e b.R.1./ ;.I.U.U.I.e.;.C.w.! T E T T Q T ` ;.<.g.G.u.d }.<X:XS L ",
"S n >X7X2X.Xj e b.G.1._ =.R.U.Q.I.e.-.C.e.R T T T T T T / %.-.r.G.@.d  X8X>XS L ",
"S S 3X7X1X*Xb X.N.A.2.( ,.I.Q.Q.Z.p.=.S.q.! E T T T T R _ &.<.h.A.u.d XXiX8Xn J ",
"n z 3X1X>X*Xk X.b.L.a.W -.P.^.Q.Z.i.=.S.q.! R Q T T Q T / 6.,.r.Z.u.d }.eX9XV ).",
"D n 2X2X;X-Xk s.n.G.1./ -.J.!.Q.L.i.-.J.q.! T T ! T T E / 6.<.y.V.u.y $XiX4XV H ",
"z x >X7X<X*Xj e m.L.<./ ,.J.T.P.L.w.<.G.9.! Q T T T Q T / *.a.p.J.u.y =XiX9XS x.",
"n n 2X9X7X-Xb i N.G.1._ ,.C.!.^.S.<.>.D.i.! R R U ! Q U ^ *.7.e.V.u.j.OX>X-Xv G ",
"S n .X>X>X>X X(.9XsXyX5X8XqX1X%X%X,X<X&X0X5X9XXX|.6XyX5X=X=X#X%X9X9X3XtX3X-XD F ",
"S x G L G J J m n L K F D J F F I H A P G S P m J `.J V H L ).K m m z.m S I V ).",
"C v n H S V _.C S S S n M S Z H n _.A v A A D A v m n S H S V M H N J S J V n K "
};
