/* XPM */
static char *d07f585ee2164060c70e3cae3932432b7Py1t1gs5tFch9IO[] = {
/* columns rows colors chars-per-pixel */
"40 40 252 2 ",
"   c #3C030B",
".  c #3D0212",
"X  c #33021B",
"o  c #3D041A",
"O  c #3F1915",
"+  c #3E0023",
"@  c #47010B",
"#  c #590905",
"$  c #4A0016",
"%  c #45001B",
"&  c #4B031A",
"*  c #450715",
"=  c #530218",
"-  c #5C031C",
";  c #560614",
":  c #511717",
">  c #4F1F13",
",  c #6D0403",
"<  c #6A010B",
"1  c #640407",
"2  c #730C04",
"3  c #6A1805",
"4  c #761806",
"5  c #67061D",
"6  c #720113",
"7  c #751A13",
"8  c #5D2409",
"9  c #5D2217",
"0  c #6B2907",
"q  c #752C0C",
"w  c #7C2C0C",
"e  c #772707",
"r  c #6A3203",
"t  c #6C330B",
"y  c #673609",
"u  c #74340D",
"i  c #783609",
"p  c #6C2B1A",
"a  c #652A17",
"s  c #732C14",
"d  c #792C16",
"f  c #7B251B",
"g  c #762E19",
"h  c #7B2D19",
"j  c #772517",
"k  c #6D3519",
"l  c #6D3914",
"z  c #733213",
"x  c #7B3214",
"c  c #743914",
"v  c #7B3B15",
"b  c #74331B",
"n  c #7C341A",
"m  c #763A1D",
"M  c #4C0022",
"N  c #460228",
"B  c #570330",
"V  c #690F24",
"C  c #5E3021",
"Z  c #762D23",
"A  c #792A22",
"S  c #6E3923",
"D  c #7B3322",
"F  c #793A23",
"G  c #773427",
"H  c #7D3832",
"J  c #6E292B",
"K  c #784215",
"L  c #7C5339",
"P  c #784C33",
"I  c #7F4D42",
"U  c #821C16",
"Y  c #822D0B",
"T  c #812807",
"R  c #853608",
"E  c #832B14",
"W  c #832818",
"Q  c #843B13",
"!  c #83321B",
"~  c #883616",
"^  c #923212",
"/  c #BA3F15",
"(  c #833523",
")  c #873729",
"_  c #86332A",
"`  c #854A0C",
"'  c #895207",
"]  c #8E5610",
"[  c #A64B12",
"{  c #B94C18",
"}  c #B85618",
"|  c #A84D07",
" . c #B77813",
".. c #8C4629",
"X. c #874C3C",
"o. c #884B36",
"O. c #86533B",
"+. c #93443D",
"@. c #B44E22",
"#. c #B85527",
"$. c #AA4E24",
"%. c #CD4C12",
"&. c #C44A1B",
"*. c #C6531C",
"=. c #CD5B1C",
"-. c #C75917",
";. c #D55719",
":. c #CE5810",
">. c #EE5F1A",
",. c #E95B14",
"<. c #F15E1B",
"1. c #FD5C1C",
"2. c #F85A19",
"3. c #E14A1F",
"4. c #C76417",
"5. c #DE681E",
"6. c #E7661D",
"7. c #F46414",
"8. c #FC6413",
"9. c #F2631C",
"0. c #FE621C",
"q. c #FD6B1D",
"w. c #F96B16",
"e. c #F9771C",
"r. c #F6640F",
"t. c #C54A23",
"y. c #CD5624",
"u. c #C25B22",
"i. c #CD5B24",
"p. c #C55328",
"a. c #DB5A23",
"s. c #D35B26",
"d. c #EB5C28",
"f. c #F45C24",
"g. c #FE5C25",
"h. c #FE5C2C",
"j. c #F95726",
"k. c #F25735",
"l. c #C57E24",
"z. c #D47523",
"x. c #EC6223",
"c. c #EC6827",
"v. c #F46324",
"b. c #FD6424",
"n. c #F36B21",
"m. c #FD6A23",
"M. c #FD652B",
"N. c #FE6B2C",
"B. c #F5682B",
"V. c #FD7224",
"C. c #FC7B23",
"Z. c #F47B2A",
"A. c #FC7A2A",
"S. c #F77627",
"D. c #FE6B33",
"F. c #FC6434",
"G. c #FE7533",
"H. c #EA7623",
"J. c #894A44",
"K. c #8E5247",
"L. c #BC8D0C",
"P. c #BC8607",
"I. c #BD9204",
"U. c #BC920E",
"Y. c #B79508",
"T. c #BC8D13",
"R. c #B88614",
"E. c #BD9413",
"W. c #BC9417",
"Q. c #BB9820",
"!. c #BDA020",
"~. c #C28B0A",
"^. c #C79208",
"/. c #C38D18",
"(. c #C49617",
"). c #F69D0F",
"_. c #FE8D13",
"`. c #FD8D1E",
"'. c #F6881A",
"]. c #E99918",
"[. c #FD9416",
"{. c #FD9B14",
"}. c #FC951B",
"|. c #F5981C",
" X c #FD9A1C",
".X c #F49619",
"XX c #FA8F0F",
"oX c #CCAB11",
"OX c #E5B907",
"+X c #FABD05",
"@X c #E9A916",
"#X c #FFA41D",
"$X c #FDA91B",
"%X c #F9A715",
"&X c #F9B717",
"*X c #EFAE0F",
"=X c #C08332",
"-X c #E98B21",
";X c #FB8324",
":X c #F58C22",
">X c #FD8D25",
",X c #FF852D",
"<X c #FF8C2C",
"1X c #FE9423",
"2X c #F49C23",
"3X c #FE9A24",
"4X c #FD922A",
"5X c #FF9B2B",
"6X c #F69228",
"7X c #FE8C32",
"8X c #FD8734",
"9X c #FE9233",
"0X c #FF9737",
"qX c #E29126",
"wX c #FDA523",
"eX c #FAAC26",
"rX c #FCA326",
"tX c #FBAA35",
"yX c #F2B422",
"uX c #EDC401",
"iX c #EBCC03",
"pX c #EAC609",
"aX c #F3CD03",
"sX c #FBCB05",
"dX c #F9C608",
"fX c #ECD302",
"gX c #E7D006",
"hX c #F3D204",
"jX c #FCD301",
"kX c #F5DA02",
"lX c #FEDD02",
"zX c #FDDD0A",
"xX c #F5D309",
"cX c #E6C312",
"vX c #E9C515",
"bX c #E9C61C",
"nX c #FDC511",
"mX c #FCCE14",
"MX c #FEC61A",
"NX c #FDC91A",
"BX c #F4C514",
"VX c #FAD114",
"CX c #FBD912",
"ZX c #F5E300",
"AX c #FEE201",
"SX c #FEEA01",
"DX c #FDE309",
"FX c #F7EA0A",
"GX c #FFF000",
"HX c #FFE713",
"JX c #FCC123",
"KX c #FFCC20",
/* pixels */
"o.J.J.J.K.J...J.o.X.X.X.X.X.o.X.+.O.L J.X.L O...X.X.X.X.X.X.X.X.o.J.o.P K...P J.",
"Q 3 4 < 1 1 , , , , , , , , , , 3 3 q e e , 6 6 , , , , , , , , # < , 3 7 Y 0 Y ",
"l i @XBXuXgXcXbXcXcXcXcXcXcXcXcX@Xd.;.h K OXbXpXcXvXvXvXvXvXvXvX&XBX&X@X,.a.n ) ",
"H q iXSXlXlXZXAXlXAXlXAXAXlXlXAXjXb.g.f K lXDXlXlXAXlXlXlXlXAXlXAXlXSXxX9.>.s m ",
"_ j iXlXtXtXrX5XeXeXeXeXeXeXeXeXwXb.k.h R +XkXeXeXeXeXeXeXeXeXeXtX$XwX).j.x.m v ",
"Z z xXlXwX>X[.0X7X7X7X9X7X9X<X9XG.w.f.f K VXAXeX<X<X<X<X<X<X7X7X9X>X4X>Xg.f.Z n ",
"m d -X{.;XZ.'.S.C.S.A.V.A.S.C.A.C.v.q.w i [.'.'.A.A.A.A.A.A.A.A.V.Z.8XA.1.2.f m ",
"F Y d.j.0.j.0.g.0.0.0.0.0.0.0.0.M.7.9.h E 2.j.g.0.0.1.0.0.0.0.0.0.1.2.g.7.x.x D ",
"n q #.-.-.p.%.*.*.&.*.*.%.%.p.y.&.&.{ R Q { ;.:.*.*.*.y.*.*.*.*.%.u.{ y.t.&.( k ",
"D J # $ M N & * & & & & $ @ * ; > J V ; - = . o $ $ $ $ $ $ $ $ & % = @ # 8 a h ",
"d s  .^.I.L./.I.U.Y.Y.T.T.U.R.} | e ` R.(.L.L.W.U.U.U.L.U.U.E.L.Y.Y.^.R.} { f ( ",
"! 0 VXAXAXSXAXAXSXAXSXlXAXSX&X1.B.2 ' CXAXAXSXjXAXAXAXAXAXAXAXAXAXzXFXKX9.h.q y ",
"i t iXfXVXpXMXnXMXnXMX&XdXsX$Xh.d.5 ` zXlXdXnXBXnXnXnXnXnXnXnXnXnX+XdX*Xb.f.s u ",
"s h uXCX%X_.>X_.<X'.[.1X|.).'.1.x.7 ] xXjX.X`.5X}.`.}.`.`.`.>X}.1X>X1X|.M.d.z Y ",
"! e uXlX).3X3X[. X[.[.1X3X5X:Xw.c.# K lXzX X>X2X1X1X3X3X1X X1X3X{. X[..Xb.9.t c ",
"p q iXlX$X1X|. X|.3X5X[.[.1X,X0.x.4 ] fXlX X>X@X X[.}.}.}.}.}.}.}.5X>X`.M.>.u b ",
"z e &XjX%X_.[.,X'.1X'.[.[.:X,X8.6.3 ` nXnX X<X1X>X}.:X_.{.>X'.1X1X[.6X'.F.k.R g ",
"K f 6.v.h.m.b.e.V.M.M.m.h.D.w.g.x.A ~ r.w.B.m.8.q.N.M.q.m.D.w.b.b.b.m.w.q.6.e l ",
"p T ,.b.7.7.F.f.,.<.7.7.9.n.,.M.:.z ~ j.F.B.6.q.9.v.M.r.9.f.m.v.9.q.N.B.B.5.j v ",
"D u h W w w ^ Y Y ..d W ^ Y w ^ ^ a p R ~ E T w w R ( d ~ W ! i i w E Y W Y e i ",
"u s z y c l r e w a y i u r p t w x x y y u d m t q x t a i c y b z z t y K p Z ",
"x Y OXkXiXhXqXf.@.; T.aXcXxXfXgXaXiXaXhXhXaXuXaXdX:X6.@.; W.aXdXdXaXiXaXgXOXE h ",
"H p pXSXAXAX0X0.}   !.GXzXlXAXAXZXSXDXjXkXDXDXlXDX1XV.#.X oXSXlXlXDXAXDXAXhXq t ",
"h G @X{.eX%XZ.e.#.% Q.lXsX%XwXwXwX XwX$X%X%XrX#X&Xe.m.@.% oXlXBX#X@X%X#XrX2X~ t ",
"b E :X`.1X_.Z.N.} % (.FXnXC.|.>X>X>X>X`.`.>X`.5X[.H.c.p.+ oXSX&X7X`.7X:X1X;Xe d ",
"H j 8X4X6X1XZ.m.i.X Y.SXnX>X}.1X1X5X5X5X1X1X1X1X4XA.D.u.X oXAX+X[.).}.2X[.6Xa m ",
"k x -X%X X[.Z.N.t.  (.HXmX|.|.1X X}.[.}.3X1X3X1X1XH.m.&.. oXHXVX<X1X4X2X5X-X0 d ",
"k ~ 5.;X,Xe.S.b.#.*  .$XXXC.;XA.;Xe.8XA.Z.;XH.;XV.S.V.{ o l.wX.XA.C.A.e.,XH.n n ",
"! U n.V.0.V.N.G.#.O $.m.b.D.N.m.M.D.N.m.0.m.V.q.m.D.D.#.* p.M.M.B.V.n.V.M.b.e y ",
"m s p.s.y.y.4.i.[ q $.;.i.i.=.:.4.4.{ i.s.&.a.y.-.u.-.[ a } =.=.=.i.i.-.p.} b ! ",
"m 9 ; $ N M * & - - B * o . $ $ * : 9 p 9 & * N % + = 5 B ; M * % $ ;   : a C ( ",
"d i  .W.Y.E.U./.L.(.T.~.(.W.(./.z.#.[ e ` =XE.I.E.(.~.~.W.P.W.(.^.E./.l.#./ x m ",
"d y VXkXZXAXAXSXSXAXDXAXAXAXAXAXVXq.w.j v jXGXZXDXAXAXAXAXAXAXAXSXDXAXsXv.<.D n ",
"! e dXjXMXKXNXyXNXNXMXMXMXMXMXNX&X2.2.h K aXjX&XMXMXMXMXMXMXMXMXBXJXMX$X<.<.h v ",
"s r fXlXwX;X1X9X4X4X4X4X4X4X4X4X:Xb.g.U Q jXAXrX4X>X4X4X4X4X1X<X7X9X0X1Xg.v.d F ",
"D q OXNX5X8X,X,X7X7X7X7X7X7X7X7XA.n.>.W v OXpX4X8X7X7X7X8X<X8X7X7X:X,XC.0.9.f ) ",
"G W ,.1.1.f.0.m.0.1.0.1.0.1.0.0.1.b.2.n A <.q.g.0.0.0.b.1.0.0.b.0.8.b.0.0.6.f D ",
"r e ;.j.9.v.<.9.<.>.>.>.<.<.>.<.<.v.;.i Y 3.f.,.<.>.<.>.<.<.<.<.2.>.f.x.6.=.i z ",
"x p n g q h q g g g g g g g g g f z z Z G ! z t b g g g b g g g b p g h f W h H ",
"v j z s s A u A d d d d d d d d g b w f h e f Z d d d d d d d d w b d x s j i D "
};
